<?xml version="1.0" standalone="no"?>
<!DOCTYPE svg PUBLIC "-//W3C//DTD SVG 20010904//EN"
 "http://www.w3.org/TR/2001/REC-SVG-20010904/DTD/svg10.dtd">
<svg version="1.0" xmlns="http://www.w3.org/2000/svg"
 width="512.000000pt" height="512.000000pt" viewBox="0 0 512.000000 512.000000"
 preserveAspectRatio="xMidYMid meet">
<metadata>
Created by potrace 1.14, written by Peter Selinger 2001-2017
</metadata>
<g transform="translate(0.000000,512.000000) scale(0.100000,-0.100000)"
fill="#000000" stroke="none">
<path d="M2534 5078 c-24 -47 -51 -93 -107 -188 -27 -47 -60 -103 -72 -125
-20 -37 -154 -268 -195 -339 -11 -17 -25 -42 -33 -56 -7 -14 -73 -128 -146
-255 -244 -422 -399 -690 -421 -730 -12 -22 -46 -80 -75 -130 -29 -49 -62
-106 -73 -125 -10 -19 -45 -80 -77 -135 -75 -130 -228 -396 -323 -560 -41 -71
-89 -155 -107 -185 -18 -30 -44 -75 -57 -100 -14 -25 -92 -160 -173 -300 -81
-140 -149 -259 -151 -265 -3 -7 102 -10 334 -10 l339 0 1 -575 c0 -316 1 -582
1 -591 1 -13 139 -15 1361 -15 948 0 1360 3 1361 10 0 6 1 272 2 591 l2 580
330 1 c182 1 334 2 338 3 4 0 -4 20 -17 43 -14 24 -32 57 -41 73 -8 17 -24 46
-36 65 -22 35 -190 326 -227 390 -18 33 -150 262 -320 555 -41 72 -82 144 -92
160 -9 17 -43 75 -75 130 -32 55 -67 116 -77 135 -11 19 -44 76 -73 125 -29
50 -63 110 -77 135 -14 25 -92 160 -173 300 -81 140 -156 270 -166 288 -11 17
-27 47 -38 65 -23 40 -88 152 -111 192 -9 17 -104 181 -210 365 -106 184 -201
349 -211 367 -10 17 -29 49 -42 70 -13 21 -26 46 -30 56 -10 26 -25 21 -43
-15z m1043 -2525 c-19 -33 -394 -685 -407 -708 -10 -16 -43 -75 -75 -130 -32
-55 -66 -113 -75 -130 -10 -16 -32 -55 -50 -85 -18 -30 -40 -68 -49 -85 -73
-135 -356 -615 -362 -615 -4 0 -22 26 -40 58 -49 87 -59 105 -159 277 -51 88
-101 174 -110 190 -9 17 -43 75 -75 130 -32 55 -65 114 -75 130 -9 17 -43 75
-75 130 -32 55 -67 116 -78 135 -10 19 -68 119 -128 222 -60 103 -109 192
-109 198 0 5 -4 10 -10 10 -5 0 -10 4 -10 10 0 5 -32 64 -71 132 -39 68 -73
126 -76 131 -2 4 455 7 1017 7 562 0 1019 -3 1017 -7z"/>
</g>
</svg>
