<?xml version="1.0" standalone="no"?>
<!DOCTYPE svg PUBLIC "-//W3C//DTD SVG 20010904//EN"
 "http://www.w3.org/TR/2001/REC-SVG-20010904/DTD/svg10.dtd">
<svg version="1.0" xmlns="http://www.w3.org/2000/svg"
 width="700.000000pt" height="700.000000pt" viewBox="0 0 700.000000 700.000000"
 preserveAspectRatio="xMidYMid meet">
<metadata>
Created by potrace 1.14, written by Peter Selinger 2001-2017
</metadata>
<g transform="translate(0.000000,700.000000) scale(0.100000,-0.100000)"
fill="#000000" stroke="none">
<path d="M3397 6823 c-52 -93 -134 -235 -182 -318 -48 -82 -157 -271 -243
-420 -85 -148 -163 -283 -172 -300 -10 -16 -42 -73 -72 -125 -30 -52 -81 -140
-113 -195 -32 -55 -66 -113 -75 -130 -17 -30 -55 -95 -202 -350 -95 -164 -339
-589 -365 -635 -11 -19 -52 -89 -90 -155 -39 -66 -81 -140 -95 -165 -14 -25
-126 -218 -248 -430 -122 -212 -274 -475 -338 -585 -63 -110 -165 -288 -227
-395 -62 -107 -122 -212 -133 -232 -12 -20 -32 -55 -46 -77 -15 -22 -26 -43
-26 -45 0 -3 -14 -27 -30 -53 -17 -26 -30 -50 -30 -53 0 -3 208 -6 463 -6
l462 0 1 -802 c0 -441 3 -804 5 -807 4 -3 3317 -8 3669 -5 l55 0 -2 787 c-1
434 0 797 2 808 4 20 12 20 465 19 253 0 460 1 460 3 0 3 -197 347 -345 603
-40 69 -83 143 -95 165 -13 22 -31 54 -41 70 -11 17 -22 37 -26 45 -4 8 -33
59 -65 113 -32 54 -58 101 -58 105 0 3 -6 13 -14 21 -7 9 -30 48 -51 86 -21
39 -48 86 -60 105 -12 19 -35 60 -52 90 -29 53 -87 153 -455 790 -297 514
-361 624 -391 680 -16 30 -33 60 -37 65 -4 6 -17 26 -28 45 -11 19 -52 91 -92
160 -39 69 -82 143 -95 165 -12 22 -122 213 -245 425 -122 212 -232 403 -245
425 -12 22 -64 112 -115 200 -51 88 -98 169 -104 180 -54 98 -172 295 -177
295 -3 0 -49 -75 -102 -167z m1493 -3329 c0 -5 -493 -864 -693 -1209 -45 -77
-91 -156 -102 -175 -11 -20 -58 -102 -105 -183 -47 -81 -89 -155 -95 -165 -5
-9 -35 -60 -65 -112 -30 -52 -62 -107 -70 -122 -8 -15 -38 -67 -66 -115 -28
-49 -81 -141 -118 -205 -37 -65 -71 -118 -76 -118 -7 0 -130 204 -130 217 0 2
-13 24 -30 48 -16 24 -30 46 -30 48 0 2 -29 54 -64 115 -36 61 -76 131 -89
154 -13 24 -57 99 -97 168 -40 69 -81 141 -92 160 -11 19 -54 94 -96 165 -41
72 -84 145 -94 163 -10 18 -86 151 -170 295 -83 144 -160 278 -171 297 -10 19
-45 80 -77 135 -32 55 -67 116 -78 135 -11 19 -54 94 -96 167 -42 73 -76 135
-76 138 0 3 625 5 1390 5 765 0 1390 -3 1390 -6z"/>
</g>
</svg>
