<svg xmlns="http://www.w3.org/2000/svg" version="1.1" xmlns:xlink="http://www.w3.org/1999/xlink" xmlns:svgjs="http://svgjs.com/svgjs" width="512" height="512"><svg width="512" height="512" viewBox="0 0 512 512" fill="none" xmlns="http://www.w3.org/2000/svg">
<rect width="512" height="512" rx="64" fill="#222222"></rect>
<path d="M151 406V106H257.934C281.273 106 300.609 110.248 315.941 118.744C331.273 127.24 342.748 138.861 350.365 153.607C357.982 168.256 361.791 184.76 361.791 203.119C361.791 221.576 357.934 238.178 350.219 252.924C342.602 267.572 331.078 279.193 315.648 287.787C300.316 296.283 281.029 300.531 257.787 300.531H184.252V262.152H253.686C268.432 262.152 280.395 259.613 289.574 254.535C298.754 249.359 305.492 242.328 309.789 233.441C314.086 224.555 316.234 214.447 316.234 203.119C316.234 191.791 314.086 181.732 309.789 172.943C305.492 164.154 298.705 157.27 289.428 152.289C280.248 147.309 268.139 144.818 253.1 144.818H196.264V406H151Z" fill="white"></path>
</svg><style>@media (prefers-color-scheme: light) { :root { filter: none; } }
@media (prefers-color-scheme: dark) { :root { filter: invert(100%); } }
</style></svg>